<svg id="visual" viewBox="0 0 1920 1080" width="1920" height="1080" xmlns="http://www.w3.org/2000/svg" xmlns:xlink="http://www.w3.org/1999/xlink" version="1.1"><rect x="0" y="0" width="1920" height="1080" fill="#1a1a1a"></rect><path d="M0 764L274 698L549 737L823 717L1097 726L1371 755L1646 788L1920 798L1920 1081L1646 1081L1371 1081L1097 1081L823 1081L549 1081L274 1081L0 1081Z" fill="#353535"></path><path d="M0 724L274 850L549 865L823 744L1097 759L1371 769L1646 722L1920 811L1920 1081L1646 1081L1371 1081L1097 1081L823 1081L549 1081L274 1081L0 1081Z" fill="#2e2e2e"></path><path d="M0 829L274 837L549 912L823 860L1097 835L1371 836L1646 846L1920 900L1920 1081L1646 1081L1371 1081L1097 1081L823 1081L549 1081L274 1081L0 1081Z" fill="#272727"></path><path d="M0 935L274 930L549 902L823 976L1097 923L1371 932L1646 938L1920 931L1920 1081L1646 1081L1371 1081L1097 1081L823 1081L549 1081L274 1081L0 1081Z" fill="#202020"></path><path d="M0 974L274 992L549 1006L823 989L1097 985L1371 959L1646 993L1920 949L1920 1081L1646 1081L1371 1081L1097 1081L823 1081L549 1081L274 1081L0 1081Z" fill="#1a1a1a"></path></svg>